<svg width="69" height="18" viewBox="0 0 69 18" fill="none" xmlns="http://www.w3.org/2000/svg">
<path d="M4.8797 6.36375C5.30329 5.77606 6.28601 4.33203 9.1325 4.33203C11.1827 4.33203 12.2162 5.12121 12.6398 5.5242C13.8597 6.71636 13.9444 8.42905 13.9444 9.38614V17.4962H8.77669V10.4776C8.77669 9.83949 8.75974 8.54658 7.03152 8.54658C5.20163 8.54658 5.1508 9.95703 5.1508 10.6455V17.4794H0V4.66785H4.8797V6.36375Z" fill="#00A4B8"/>
<path d="M15.9407 0H21.0915V3.39179H15.9407V0ZM15.9407 4.66791H21.0915V17.5131H15.9407V4.66791Z" fill="#00A4B8"/>
<path d="M23.0717 0H28.2564V8.32836L31.7637 4.66791H38.0667L33.1361 9.30224L38.2869 17.5131H32.3906L29.561 12.6269L28.2056 13.9198V17.5131H23.0717V0Z" fill="#00A4B8"/>
<path d="M39.097 0H44.2817V8.32836L47.789 4.66791H54.0919L49.1614 9.30224L54.3122 17.5131H48.4328L45.6033 12.6269L44.2478 13.9198V17.5131H39.097V0Z" fill="#00A4B8"/>
<path d="M66.4747 5.97765C67.6946 7.13623 68.5079 9.08399 68.5079 11.1157C68.5079 15.1624 65.6784 18 60.7817 18C55.5462 18 53.3944 14.625 53.3944 11.1829C53.3944 6.96832 56.2748 4.09705 61.0528 4.11384C63.6621 4.14742 65.4751 5.03735 66.4747 5.97765ZM58.5113 11.0318C58.5113 12.2743 58.8163 14.4235 60.9173 14.4235C62.7133 14.4235 63.2894 12.9124 63.2894 10.9814C63.2894 10.209 63.2385 7.63996 60.8834 7.70713C58.9349 7.7575 58.5113 9.58772 58.5113 11.0318Z" fill="#00A4B8"/>
</svg>
