<svg width="40" height="14" viewBox="0 0 40 14" fill="none" xmlns="http://www.w3.org/2000/svg">
<path d="M1.19267 4.79851C1.39599 3.70709 1.66708 2.34701 3.51391 1.37313C4.97104 0.634328 6.81788 0.5 8.17335 0.5C14.3238 0.5 14.3238 3.65672 14.3238 5.1847V12.1698C14.3238 13.0093 14.3916 13.2444 14.7813 13.7481H9.69826V12.7575C9.05441 13.2108 7.85143 14.0504 5.42852 14.0504C2.17538 14.0504 0.752136 12.0858 0.752136 9.90298C0.752136 9.13059 0.92157 8.07276 1.85346 7.14925C3.02255 5.95709 4.42886 5.7556 6.69928 5.47015C8.12252 5.26866 8.68165 5.15112 9.44411 4.93283C9.42716 4.0597 9.17301 3.47201 7.69894 3.47201C6.52984 3.47201 6.19097 3.77425 6.02154 4.66418L1.19267 4.79851ZM7.88531 8.29104C7.46173 8.39179 7.00425 8.49254 6.56372 8.64365C5.56406 9.04664 5.51324 9.63433 5.51324 9.78545C5.51324 10.1381 5.81822 10.7761 6.78399 10.7761C7.51256 10.7761 8.71554 10.306 9.15607 9.3153C9.41022 8.77798 9.41022 8.25746 9.41022 7.8041C8.91886 7.97201 8.41056 8.13992 7.88531 8.29104Z" fill="#FFD74A"/>
<path d="M21.2171 2.78402C21.6238 2.14596 22.5048 0.634766 25.3344 0.634766C25.7919 0.634766 26.5035 0.685139 27.3168 0.937004C28.9942 1.45753 29.4855 2.38103 29.8413 3.05268C30.2141 2.21312 31.3832 0.651557 34.3483 0.651557C35.7546 0.651557 37.0931 1.10491 37.9572 1.94447C39.1263 3.08626 39.1602 4.47991 39.1772 5.68887V13.7989H34.0264V7.08253C34.0264 6.25977 34.0094 4.8829 32.2304 4.8829C30.3496 4.8829 30.3327 6.39409 30.3327 6.96499V13.8325H25.1819V6.84745C25.1819 6.59559 25.165 6.34372 25.1141 6.10865C24.8939 5.11797 24.0128 4.84932 23.3859 4.84932C22.8607 4.84932 22.3354 5.01723 21.9796 5.36984C21.5052 5.83999 21.5052 6.36051 21.4713 6.81387V13.7989H16.3205V0.953795H21.251V2.78402H21.2171Z" fill="#FFD74A"/>
</svg>
